<?xml version="1.0" standalone="no"?>
<!DOCTYPE svg PUBLIC "-//W3C//DTD SVG 20010904//EN"
 "http://www.w3.org/TR/2001/REC-SVG-20010904/DTD/svg10.dtd">
<svg version="1.0" xmlns="http://www.w3.org/2000/svg"
 width="519.000000pt" height="602.000000pt" viewBox="0 0 519.000000 602.000000"
 preserveAspectRatio="xMidYMid meet">

<g transform="translate(0.000000,602.000000) scale(0.100000,-0.100000)"
fill="current" stroke="current">
<path d="M2140 3785 l0 -2235 560 0 560 0 0 2235 0 2235 -560 0 -560 0 0
-2235z"/>
<path d="M3430 4900 l0 -1120 555 0 555 0 0 1120 0 1120 -555 0 -555 0 0
-1120z"/>
<path d="M860 2665 l0 -1115 555 0 555 0 0 1115 0 1115 -555 0 -555 0 0 -1115z"/>
<path d="M256 975 c-122 -50 -185 -130 -193 -242 -7 -86 8 -139 51 -189 44
-51 116 -86 246 -119 169 -41 200 -60 200 -119 0 -61 -79 -93 -186 -76 -78 13
-129 37 -185 87 l-40 37 -77 -77 -77 -77 52 -48 c173 -162 477 -192 641 -62
107 84 144 241 86 359 -43 86 -116 127 -305 172 -153 36 -189 59 -175 115 22
87 216 84 318 -5 l45 -40 68 69 c45 46 66 73 62 84 -11 29 -140 114 -204 135
-94 31 -247 29 -327 -4z"/>
<path d="M1320 985 c-74 -21 -101 -34 -166 -80 -243 -174 -270 -540 -55 -754
97 -96 208 -141 351 -141 274 0 490 216 490 490 0 145 -45 255 -145 355 -68
68 -135 107 -220 130 -70 18 -192 18 -255 0z m219 -227 c44 -14 116 -80 144
-133 31 -57 31 -183 0 -240 -28 -52 -88 -109 -137 -129 -61 -25 -152 -21 -214
10 -94 47 -142 127 -142 239 0 193 162 310 349 253z"/>
<path d="M2140 505 l0 -485 330 0 330 0 0 110 0 110 -212 2 -213 3 -3 373 -2
372 -115 0 -115 0 0 -485z"/>
<path d="M3030 505 l0 -485 115 0 115 0 0 485 0 485 -115 0 -115 0 0 -485z"/>
<path d="M3480 880 l0 -110 135 0 135 0 0 -375 0 -375 115 0 115 0 2 373 3
372 138 3 137 3 0 109 0 110 -390 0 -390 0 0 -110z"/>
<path d="M4599 963 c-24 -63 -313 -842 -330 -890 l-18 -53 117 0 117 0 25 73
25 72 184 0 184 0 26 -72 26 -73 117 0 c65 0 118 1 118 3 0 1 -81 218 -178
482 l-178 480 -112 3 -112 3 -11 -28z m227 -575 c5 -16 -4 -18 -105 -18 -61 0
-111 2 -111 3 0 7 101 290 107 300 5 8 68 -158 109 -285z"/>
</g>
</svg>
